<svg xmlns="http://www.w3.org/2000/svg" viewBox="0 0 400 260"><rect width="400" height="260" rx="24" fill="#f1edff"/><ellipse cx="200" cy="140" rx="160" ry="108" fill="#e2d9ff"/><circle cx="345" cy="55" r="26" fill="#ffe3f1"/><circle cx="55" cy="205" r="22" fill="#cfe6ff"/>
<rect x="85" y="55" width="230" height="90" rx="16" fill="#fff" stroke="#5b5bd6" stroke-width="4"/>
<rect x="105" y="75" width="46" height="16" rx="4" fill="#e8e9ff"/><circle cx="288" cy="83" r="5" fill="#3fcf8e"/>
<rect x="105" y="112" width="190" height="12" rx="6" fill="#cfd0f7"/>
<g fill="none" stroke="#6ab7ff" stroke-width="5" stroke-linecap="round"><path d="M130 165 q12 14 0 28 t0 28"/><path d="M200 165 q12 14 0 28 t0 28"/><path d="M270 165 q12 14 0 28 t0 28"/></g>
<g stroke="#6ab7ff" stroke-width="5" stroke-linecap="round"><line x1="350" y1="95" x2="350" y2="135"/><line x1="333" y1="105" x2="367" y2="125"/><line x1="367" y1="105" x2="333" y2="125"/></g>
<g transform="translate(55 195) rotate(40)"><rect x="-6" y="-5" width="12" height="62" rx="6" fill="#8a94a6"/><circle cx="0" cy="-8" r="15" fill="none" stroke="#8a94a6" stroke-width="9"/></g>
<g transform="translate(335 40) scale(.8)"><path d="M0 -14 L4 -4 L14 0 L4 4 L0 14 L-4 4 L-14 0 L-4 -4Z" fill="#fff" stroke="#ffd166" stroke-width="2"/></g></svg>
